<svg width="16" height="13" viewBox="0 0 16 13" fill="none" xmlns="http://www.w3.org/2000/svg">
<g clip-path="url(#clip0_636_243)">
<mask id="mask0_636_243" style="mask-type:luminance" maskUnits="userSpaceOnUse" x="0" y="0" width="16" height="13">
<path d="M15.5125 0.332275H0.313965V12.5676H15.5125V0.332275Z" fill="white"/>
</mask>
<g mask="url(#mask0_636_243)">
<path d="M5.33061 0.441451C4.3896 0.659939 3.67123 0.903397 2.78367 1.2998C2.63821 1.36534 2.61446 1.39344 2.40964 1.73365C1.43005 3.36294 0.794795 5.03905 0.506855 6.75886C0.358433 7.65467 0.331716 8.04483 0.334685 9.14975C0.337653 9.71471 0.349527 10.2578 0.364369 10.3514L0.388117 10.5199L0.774017 10.7978C1.73877 11.4875 2.7421 12.0182 3.79294 12.3958C4.00964 12.4738 4.20259 12.5301 4.2204 12.5238C4.29461 12.4926 5.03375 11.2535 5.03375 11.1599C5.03375 11.1473 4.95658 11.1068 4.86455 11.0693C4.63005 10.9726 3.87012 10.5762 3.81966 10.5231C3.76919 10.47 3.78106 10.4513 3.94136 10.3295L4.06901 10.2328L4.36586 10.367C5.9332 11.0693 7.72319 11.2971 9.38253 11.0038C10.1454 10.8696 10.8401 10.648 11.6564 10.2796C11.7603 10.2328 11.7633 10.2328 11.8939 10.3421C11.9651 10.4013 12.0245 10.4669 12.0245 10.4856C12.0245 10.5294 11.4041 10.8726 11.0746 11.01C10.944 11.0662 10.8252 11.1224 10.8104 11.1348C10.751 11.1911 11.5198 12.5332 11.6118 12.5363C11.6326 12.5363 11.8048 12.4801 11.9977 12.4083C13.0932 12.0119 14.0816 11.4907 15.0523 10.7978L15.4382 10.5199L15.459 10.3514C15.4679 10.2578 15.4857 9.85511 15.4976 9.46183C15.5807 6.70892 14.9039 4.19943 13.4137 1.73053L13.194 1.36846L12.7874 1.19055C12.0364 0.862822 11.0568 0.550695 10.3354 0.410239L10.0683 0.357178L10.0178 0.432088C9.98813 0.469543 9.89315 0.66306 9.80704 0.859702L9.64973 1.2124L9.5013 1.19367C9.42115 1.18431 9.22522 1.15934 9.0709 1.13749C8.70275 1.08755 7.15621 1.08755 6.77031 1.13749C6.60704 1.15622 6.40815 1.18118 6.32503 1.19367L6.17661 1.20928L5.98367 0.794151C5.75806 0.310359 5.79665 0.332208 5.33061 0.441451ZM5.93617 5.58839C6.32503 5.78815 6.60704 6.17831 6.71391 6.65898C6.77327 6.92117 6.75546 7.35501 6.67234 7.60784C6.33098 8.68152 5.21186 9.00614 4.48459 8.24457C4.00964 7.74514 3.89387 6.93677 4.20259 6.27195C4.37179 5.913 4.64786 5.65081 5.00111 5.52285C5.16437 5.46042 5.23858 5.45106 5.45825 5.46042C5.68385 5.47291 5.74916 5.48851 5.93617 5.58839ZM10.9885 5.59151C11.4961 5.8537 11.8019 6.39991 11.8019 7.04289C11.8019 7.51108 11.6623 7.89808 11.3804 8.21337C10.6085 9.08421 9.3618 8.62852 9.11242 7.38623C8.98181 6.73389 9.25191 6.00664 9.75359 5.66954C9.99701 5.50412 10.2019 5.44794 10.5046 5.46354C10.7332 5.47291 10.7956 5.48851 10.9885 5.59151Z" fill="#005371"/>
</g>
</g>
<defs>
<clipPath id="clip0_636_243">
<rect width="16" height="13" fill="white"/>
</clipPath>
</defs>
</svg>
