<svg width="17" height="17" viewBox="0 0 17 17" fill="none" xmlns="http://www.w3.org/2000/svg">
<g clip-path="url(#clip0_636_261)">
<mask id="mask0_636_261" style="mask-type:luminance" maskUnits="userSpaceOnUse" x="0" y="0" width="17" height="17">
<path d="M16.4312 0.43457H0.431152V16.4346H16.4312V0.43457Z" fill="white"/>
</mask>
<g mask="url(#mask0_636_261)">
<path d="M8.43116 0.43457C4.01292 0.43457 0.431152 4.01633 0.431152 8.43457C0.431152 12.1863 3.0142 15.3344 6.49868 16.1991V10.8794H4.84908V8.43457H6.49868V7.38113C6.49868 4.65825 7.731 3.39617 10.4043 3.39617C10.9112 3.39617 11.7858 3.49569 12.1435 3.59489V5.81089C11.9547 5.79105 11.6267 5.78113 11.2194 5.78113C9.90764 5.78113 9.40076 6.27809 9.40076 7.56993V8.43457H12.0139L11.565 10.8794H9.40076V16.376C13.3621 15.8976 16.4315 12.5248 16.4315 8.43457C16.4312 4.01633 12.8494 0.43457 8.43116 0.43457Z" fill="#005371"/>
</g>
</g>
<defs>
<clipPath id="clip0_636_261">
<rect width="17" height="17" fill="white"/>
</clipPath>
</defs>
</svg>
