<svg width="17" height="17" viewBox="0 0 17 17" fill="none" xmlns="http://www.w3.org/2000/svg">
<g clip-path="url(#clip0_636_269)">
<mask id="mask0_636_269" style="mask-type:luminance" maskUnits="userSpaceOnUse" x="0" y="0" width="17" height="17">
<path d="M16.4312 0.43457H0.431152V16.4346H16.4312V0.43457Z" fill="white"/>
</mask>
<g mask="url(#mask0_636_269)">
<path d="M8.43116 1.8752C10.5687 1.8752 10.8218 1.88457 11.6624 1.92207C12.4437 1.95645 12.8656 2.0877 13.1468 2.19707C13.5187 2.34082 13.7874 2.51582 14.0656 2.79395C14.3468 3.0752 14.5187 3.34082 14.6624 3.7127C14.7718 3.99395 14.9031 4.41895 14.9374 5.19707C14.9749 6.04082 14.9843 6.29395 14.9843 8.42832C14.9843 10.5658 14.9749 10.8189 14.9374 11.6596C14.9031 12.4408 14.7718 12.8627 14.6624 13.1439C14.5187 13.5158 14.3437 13.7846 14.0656 14.0627C13.7843 14.3439 13.5187 14.5158 13.1468 14.6596C12.8656 14.7689 12.4406 14.9002 11.6624 14.9346C10.8187 14.9721 10.5656 14.9814 8.43116 14.9814C6.29366 14.9814 6.04053 14.9721 5.19991 14.9346C4.41866 14.9002 3.99678 14.7689 3.71553 14.6596C3.34366 14.5158 3.07491 14.3408 2.79678 14.0627C2.51553 13.7814 2.34366 13.5158 2.19991 13.1439C2.09053 12.8627 1.95928 12.4377 1.92491 11.6596C1.88741 10.8158 1.87803 10.5627 1.87803 8.42832C1.87803 6.29082 1.88741 6.0377 1.92491 5.19707C1.95928 4.41582 2.09053 3.99395 2.19991 3.7127C2.34366 3.34082 2.51866 3.07207 2.79678 2.79395C3.07803 2.5127 3.34366 2.34082 3.71553 2.19707C3.99678 2.0877 4.42178 1.95645 5.19991 1.92207C6.04053 1.88457 6.29366 1.8752 8.43116 1.8752ZM8.43116 0.43457C6.25928 0.43457 5.98741 0.443945 5.13428 0.481445C4.28428 0.518945 3.69991 0.656445 3.19366 0.85332C2.66553 1.05957 2.21866 1.33145 1.77491 1.77832C1.32803 2.22207 1.05616 2.66895 0.849903 3.19395C0.653027 3.70332 0.515527 4.28457 0.478027 5.13457C0.440527 5.99082 0.431152 6.2627 0.431152 8.43457C0.431152 10.6064 0.440527 10.8783 0.478027 11.7314C0.515527 12.5814 0.653027 13.1658 0.849903 13.6721C1.05616 14.2002 1.32803 14.6471 1.77491 15.0908C2.21866 15.5346 2.66553 15.8096 3.19053 16.0127C3.69991 16.2096 4.28116 16.3471 5.13116 16.3846C5.98428 16.4221 6.25616 16.4314 8.42803 16.4314C10.5999 16.4314 10.8718 16.4221 11.7249 16.3846C12.5749 16.3471 13.1593 16.2096 13.6656 16.0127C14.1906 15.8096 14.6374 15.5346 15.0812 15.0908C15.5249 14.6471 15.7999 14.2002 16.0031 13.6752C16.1999 13.1658 16.3374 12.5846 16.3749 11.7346C16.4124 10.8814 16.4218 10.6096 16.4218 8.4377C16.4218 6.26582 16.4124 5.99395 16.3749 5.14082C16.3374 4.29082 16.1999 3.70645 16.0031 3.2002C15.8062 2.66895 15.5343 2.22207 15.0874 1.77832C14.6437 1.33457 14.1968 1.05957 13.6718 0.856445C13.1624 0.65957 12.5812 0.52207 11.7312 0.48457C10.8749 0.443945 10.6031 0.43457 8.43116 0.43457Z" fill="#005371"/>
<path d="M8.43116 4.3252C6.16241 4.3252 4.32178 6.16582 4.32178 8.43457C4.32178 10.7033 6.16241 12.5439 8.43116 12.5439C10.6999 12.5439 12.5406 10.7033 12.5406 8.43457C12.5406 6.16582 10.6999 4.3252 8.43116 4.3252ZM8.43116 11.1002C6.95928 11.1002 5.76553 9.90645 5.76553 8.43457C5.76553 6.9627 6.95928 5.76895 8.43116 5.76895C9.90303 5.76895 11.0968 6.9627 11.0968 8.43457C11.0968 9.90645 9.90303 11.1002 8.43116 11.1002Z" fill="#005371"/>
<path d="M13.6624 4.1625C13.6624 4.69375 13.2312 5.12189 12.7031 5.12189C12.1718 5.12189 11.7437 4.69063 11.7437 4.1625C11.7437 3.63125 12.1749 3.20312 12.7031 3.20312C13.2312 3.20312 13.6624 3.63438 13.6624 4.1625Z" fill="#005371"/>
</g>
</g>
<defs>
<clipPath id="clip0_636_269">
<rect width="17" height="17" fill="white"/>
</clipPath>
</defs>
</svg>
