<svg width="17" height="17" viewBox="0 0 17 17" fill="none" xmlns="http://www.w3.org/2000/svg">
<mask id="mask0_636_249" style="mask-type:luminance" maskUnits="userSpaceOnUse" x="0" y="0" width="17" height="17">
<path d="M16.4312 0.43457H0.431152V16.4346H16.4312V0.43457Z" fill="white"/>
</mask>
<g mask="url(#mask0_636_249)">
<path d="M16.2718 5.23477C16.2718 5.23477 16.1156 4.13164 15.6343 3.64727C15.0249 3.00977 14.3437 3.00664 14.0312 2.96914C11.7937 2.80664 8.43428 2.80664 8.43428 2.80664H8.42803C8.42803 2.80664 5.06866 2.80664 2.83116 2.96914C2.51866 3.00664 1.83741 3.00977 1.22803 3.64727C0.746778 4.13164 0.593652 5.23477 0.593652 5.23477C0.593652 5.23477 0.431152 6.53164 0.431152 7.82539V9.03789C0.431152 10.3316 0.590527 11.6285 0.590527 11.6285C0.590527 11.6285 0.746777 12.7316 1.22491 13.216C1.83428 13.8535 2.63428 13.8316 2.99053 13.9004C4.27178 14.0223 8.43116 14.0598 8.43116 14.0598C8.43116 14.0598 11.7937 14.0535 14.0312 13.8941C14.3437 13.8566 15.0249 13.8535 15.6343 13.216C16.1156 12.7316 16.2718 11.6285 16.2718 11.6285C16.2718 11.6285 16.4312 10.3348 16.4312 9.03789V7.82539C16.4312 6.53164 16.2718 5.23477 16.2718 5.23477ZM6.77803 10.5098V6.01289L11.0999 8.26914L6.77803 10.5098Z" fill="#005371"/>
</g>
</svg>
